# xmcd CD database file
#
# Track frame offsets:
#	150
#	15555
#	32535
#	48770
#	67785
#	85880
#	103719
#	122178
#	138739
#	155319
#	173595
#
# Disc length: 2538 seconds
#
# Revision: 0
# Processed by: cddbd v1.5.2PL0 Copyright (c) Steve Scherf et al.
# Submitted via: CdAid (MTCDDB.DLL V2003.12.21)
#
DISCID=8009e80b
DTITLE=Rique - Fogo e Gás
DYEAR=2000
DGENRE=Country
TTITLE0=Não Vá Sumir
TTITLE1=Longe de Você
TTITLE2=Quero Ver Você Dançar
TTITLE3=Vêm e Vão
TTITLE4=Esse É o Lugar
TTITLE5=Voar Com Você
TTITLE6=Entre o Céu e o Mar
TTITLE7=Festa
TTITLE8=Fogo e Gás
TTITLE9=Ficar Comigo
TTITLE10=Sonho de Amor
EXTD=ID3G:   2 YEAR: 2000
EXTT0=
EXTT1=
EXTT2=
EXTT3=
EXTT4=
EXTT5=
EXTT6=
EXTT7=
EXTT8=
EXTT9=
EXTT10=
PLAYORDER=
